<svg id="Layer_1" data-name="Layer 1" xmlns="http://www.w3.org/2000/svg" viewBox="0 0 304.12 181.73"><defs><style>.cls-1{fill:#398bcb;}.cls-2{fill:#fff;}</style></defs><title>rfny-past-forums-2015</title><rect class="cls-1" x="1.82" width="300" height="180"/><path class="cls-2" d="M162.58,251.35V237.51l34.14-36.6q7.39-8.48,10.51-14.31a23.22,23.22,0,0,0,3.12-10.84,16.3,16.3,0,0,0-3.59-10.91q-3.59-4.24-10.18-4.24-7.32,0-11.12,5t-3.81,13.23H161.05l-0.14-.44a31.89,31.89,0,0,1,9.39-24.17q9.75-9.89,26.27-9.89,16.31,0,25.66,8.48t9.35,22.61a31.91,31.91,0,0,1-5.25,17.68q-5.26,8.12-17.43,21.16l-18.77,20.51,0.15,0.36h27.4l0.87-10.44h16.09v26.67h-72Z" transform="translate(-160.9 -71.15)"/><path class="cls-2" d="M317.75,210.26q0,20.95-9.6,31.78t-26,10.84q-16.52,0-26.16-10.84t-9.64-31.78V187q0-20.87,9.6-31.78T282,144.3q16.38,0,26.06,10.91T317.75,187v23.27Zm-21.09-25.44q0-12.54-3.77-18.37a13.07,13.07,0,0,0-21.74,0q-3.7,5.8-3.7,18.41v27.47q0,12.76,3.73,18.55a12.23,12.23,0,0,0,11,5.8,12,12,0,0,0,10.8-5.8q3.7-5.8,3.7-18.55V184.82Z" transform="translate(-160.9 -71.15)"/><path class="cls-2" d="M328.84,238.67l17.83-2.17V165h-18v-12.1l39.14-7.1v90.67l17.83,2.17v12.68H328.84V238.67Z" transform="translate(-160.9 -71.15)"/><path class="cls-2" d="M450.16,169.89l-1.88-7.1H419.87l-3,24.35a26.43,26.43,0,0,1,7.1-3.59,29.41,29.41,0,0,1,9.13-1.49q15.22-.22,23.56,9.2T465,217.5q0,15.22-9.17,25.29t-26.42,10.07q-14.5,0-24.86-7.94t-10-21.85l0.15-.36,20.29-1q0,7,4,11a14.18,14.18,0,0,0,10.44,3.95q7.39,0,10.94-5.29t3.55-13.7q0-9.13-3.77-14.64t-11.23-5.51q-6,0-9.24,2.25a12.26,12.26,0,0,0-4.6,6.09l-18.7-1.23,6.09-58.78h60.74v24.06h-13Z" transform="translate(-160.9 -71.15)"/></svg>