<svg id="Layer_1" data-name="Layer 1" xmlns="http://www.w3.org/2000/svg" viewBox="0 0 305.92 181.97"><defs><style>.cls-1{fill:#85d5f7;}.cls-2{fill:#fff;}</style></defs><title>rfny-past-forums-2012</title><rect class="cls-1" x="2.1" width="300" height="180"/><path class="cls-2" d="M157.66,454.62V440.79l34.11-36.57q7.39-8.47,10.5-14.3a23.21,23.21,0,0,0,3.11-10.83,16.29,16.29,0,0,0-3.58-10.9q-3.59-4.24-10.18-4.24-7.32,0-11.12,5t-3.8,13.22H156.14l-0.15-.43a31.87,31.87,0,0,1,9.38-24.15q9.74-9.89,26.25-9.89,16.29,0,25.64,8.47t9.34,22.6a31.88,31.88,0,0,1-5.25,17.67q-5.25,8.11-17.42,21.15L185.18,438l0.14,0.36H212.7L213.57,428h16.08v26.65h-72Z" transform="translate(-155.98 -274.17)"/><path class="cls-2" d="M312.72,413.56q0,20.93-9.6,31.76t-26,10.83q-16.51,0-26.14-10.83t-9.63-31.76V390.31q0-20.86,9.6-31.76t26-10.9q16.37,0,26,10.9t9.67,31.76v23.25Zm-21.08-25.42q0-12.53-3.77-18.36a13.06,13.06,0,0,0-21.73,0q-3.69,5.79-3.69,18.4v27.45q0,12.75,3.73,18.54a12.22,12.22,0,0,0,11,5.79,12,12,0,0,0,10.79-5.79q3.69-5.79,3.69-18.54V388.14Z" transform="translate(-155.98 -274.17)"/><path class="cls-2" d="M323.8,441.95l17.82-2.17V368.37h-18V356.27l39.11-7.1v90.6l17.82,2.17v12.67H323.8V441.95Z" transform="translate(-155.98 -274.17)"/><path class="cls-2" d="M389.92,454.62V440.79L424,404.21q7.39-8.47,10.5-14.3a23.21,23.21,0,0,0,3.11-10.83,16.29,16.29,0,0,0-3.58-10.9q-3.58-4.24-10.17-4.24-7.32,0-11.12,5T409,382.13H388.4l-0.14-.43a31.87,31.87,0,0,1,9.38-24.15q9.74-9.89,26.25-9.89,16.29,0,25.64,8.47t9.34,22.6a31.88,31.88,0,0,1-5.25,17.67q-5.25,8.11-17.42,21.15L417.44,438l0.15,0.36H445L445.83,428H461.9v26.65h-72Z" transform="translate(-155.98 -274.17)"/></svg>