<svg id="Layer_1" data-name="Layer 1" xmlns="http://www.w3.org/2000/svg" viewBox="0 0 304.45 182.32"><defs><style>.cls-1{fill:#56c0ee;stroke:#fff;stroke-miterlimit:10;}.cls-2{fill:#fff;}</style></defs><title>rfny-past-forums-2013</title><rect class="cls-1" x="1.38" y="0.5" width="300" height="180"/><path class="cls-2" d="M167.78,751.13V737.36l34-36.42q7.36-8.44,10.46-14.24a23.11,23.11,0,0,0,3.1-10.78,16.22,16.22,0,0,0-3.57-10.85q-3.57-4.22-10.13-4.22-7.29,0-11.07,4.94t-3.79,13.16H166.26l-0.14-.43a31.74,31.74,0,0,1,9.34-24.05q9.7-9.85,26.15-9.85,16.23,0,25.53,8.44t9.3,22.5a31.76,31.76,0,0,1-5.23,17.6q-5.23,8.08-17.35,21.06l-18.68,20.41,0.14,0.36h27.26l0.87-10.39h16v26.54H167.78Z" transform="translate(-166.11 -570.32)"/><path class="cls-2" d="M322.19,710.24q0,20.84-9.56,31.63t-25.86,10.78q-16.44,0-26-10.78t-9.59-31.63V687.09q0-20.77,9.56-31.63t25.93-10.86q16.3,0,25.93,10.86t9.63,31.63v23.15Zm-21-25.32q0-12.48-3.75-18.28a13,13,0,0,0-21.64,0q-3.68,5.77-3.68,18.32v27.33q0,12.7,3.71,18.46a12.17,12.17,0,0,0,10.93,5.77,12,12,0,0,0,10.75-5.77q3.68-5.77,3.68-18.46V684.92Z" transform="translate(-166.11 -570.32)"/><path class="cls-2" d="M333.23,738.51L351,736.35V665.23H333v-12L372,646.12v90.23l17.74,2.16v12.62H333.23V738.51Z" transform="translate(-166.11 -570.32)"/><path class="cls-2" d="M421.29,689.68h11.83q7.5,0,11.11-3.93t3.61-10.93q0-6.35-3.61-10.17t-10.46-3.82a14.76,14.76,0,0,0-10,3.46,11.39,11.39,0,0,0-4,9.09H399.37l-0.14-.43q-0.43-12.33,9.45-20.34t24.52-8q16.3,0,26,7.79t9.7,22.21a22.3,22.3,0,0,1-4.33,13,28.77,28.77,0,0,1-11.9,9.63A26.79,26.79,0,0,1,466,706.78a25,25,0,0,1,4.58,14.93q0,14.43-10.49,22.68t-26.87,8.26q-14.64,0-25.14-7.75T397.92,723l0.14-.43h20.41a12.9,12.9,0,0,0,4.33,10,15.68,15.68,0,0,0,11,3.93q7.28,0,11.5-4t4.22-11q0-8.29-4.15-12.15t-12.22-3.86H421.29V689.68Z" transform="translate(-166.11 -570.32)"/></svg>