<svg id="Layer_1" data-name="Layer 1" xmlns="http://www.w3.org/2000/svg" viewBox="0 0 302.64 182.32"><defs><style>.cls-1{fill:#398bcb;stroke:#fff;stroke-miterlimit:10;}.cls-2{fill:#fff;}</style></defs><title>rfny-past-forums</title><rect class="cls-1" x="1.38" y="0.5" width="300" height="180"/><path class="cls-2" d="M167.78,254.38V240.6l34-36.42q7.36-8.44,10.46-14.24a23.11,23.11,0,0,0,3.1-10.78,16.22,16.22,0,0,0-3.57-10.85q-3.57-4.22-10.13-4.22-7.29,0-11.07,4.94t-3.79,13.16H166.26l-0.14-.43a31.74,31.74,0,0,1,9.34-24.05q9.7-9.85,26.15-9.85,16.23,0,25.53,8.44t9.3,22.5a31.75,31.75,0,0,1-5.23,17.6q-5.23,8.08-17.35,21.06l-18.68,20.41,0.14,0.36h27.26l0.87-10.39h16v26.54H167.78Z" transform="translate(-166.11 -73.57)"/><path class="cls-2" d="M322.19,213.48q0,20.84-9.56,31.63t-25.86,10.78q-16.44,0-26-10.78t-9.59-31.63V190.33q0-20.77,9.56-31.63t25.93-10.85q16.3,0,25.93,10.85t9.63,31.63v23.15Zm-21-25.32q0-12.48-3.75-18.28a13,13,0,0,0-21.64,0q-3.68,5.77-3.68,18.32V215.5q0,12.7,3.71,18.46a12.17,12.17,0,0,0,10.93,5.77A12,12,0,0,0,297.53,234q3.68-5.77,3.68-18.46V188.17Z" transform="translate(-166.11 -73.57)"/><path class="cls-2" d="M333.23,241.76L351,239.59V168.48H333v-12L372,149.37v90.23l17.74,2.16v12.62H333.23V241.76Z" transform="translate(-166.11 -73.57)"/><path class="cls-2" d="M454,173.31l-1.87-7.07H423.82l-3,24.23a26.3,26.3,0,0,1,7.07-3.57,29.28,29.28,0,0,1,9.09-1.48q15.15-.22,23.44,9.16t8.29,26.11q0,15.15-9.12,25.17t-26.29,10q-14.43,0-24.74-7.9t-10-21.75l0.14-.36,20.19-1q0,7,4,10.93a14.11,14.11,0,0,0,10.39,3.93q7.36,0,10.89-5.27t3.53-13.63q0-9.09-3.75-14.57t-11.18-5.48q-6,0-9.2,2.24a12.2,12.2,0,0,0-4.58,6.06l-18.61-1.23,6.06-58.49h60.44v23.95H454Z" transform="translate(-166.11 -73.57)"/></svg>