<svg id="Layer_1" data-name="Layer 1" xmlns="http://www.w3.org/2000/svg" viewBox="0 0 307.05 182.32"><defs><style>.cls-1{fill:#44a9df;stroke:#fff;stroke-miterlimit:10;}.cls-2{fill:#fff;}</style></defs><title>rfny-past-forums-2014</title><rect class="cls-1" x="1.38" y="0.5" width="300" height="180"/><path class="cls-2" d="M167.78,499.8V486l34-36.42q7.36-8.44,10.46-14.24a23.11,23.11,0,0,0,3.1-10.78,16.22,16.22,0,0,0-3.57-10.85q-3.57-4.22-10.13-4.22-7.29,0-11.07,4.94t-3.79,13.16H166.26l-0.14-.43a31.74,31.74,0,0,1,9.34-24.05q9.7-9.85,26.15-9.85,16.23,0,25.53,8.44t9.3,22.5a31.76,31.76,0,0,1-5.23,17.6q-5.23,8.08-17.35,21.06l-18.68,20.41,0.14,0.36h27.26l0.87-10.39h16V499.8H167.78Z" transform="translate(-166.1 -318.99)"/><path class="cls-2" d="M322.19,458.91q0,20.84-9.56,31.63t-25.86,10.78q-16.44,0-26-10.78t-9.59-31.63V435.76q0-20.77,9.56-31.63t25.93-10.85q16.3,0,25.93,10.85t9.63,31.63v23.15Zm-21-25.32q0-12.48-3.75-18.28a13,13,0,0,0-21.64,0q-3.68,5.77-3.68,18.32v27.33q0,12.7,3.71,18.46a12.17,12.17,0,0,0,10.93,5.77,12,12,0,0,0,10.75-5.77q3.68-5.77,3.68-18.46V433.59Z" transform="translate(-166.1 -318.99)"/><path class="cls-2" d="M333.23,487.18L351,485V413.91H333v-12L372,394.79V485l17.74,2.16V499.8H333.23V487.18Z" transform="translate(-166.1 -318.99)"/><path class="cls-2" d="M461.25,460.71h11.9v14h-11.9V485l11.18,2.16V499.8H429V487.18L440.26,485V474.71H397.42l-1-10.31L440,394.79h21.2v65.92Zm-45.15,0h24.16V422.85l-0.43-.14-1.73,3Z" transform="translate(-166.1 -318.99)"/></svg>