<svg id="Layer_1" data-name="Layer 1" xmlns="http://www.w3.org/2000/svg" viewBox="0 0 302 182"><defs><style>.cls-1{fill:none;stroke:#ce2027;stroke-miterlimit:10;stroke-width:2px;}.cls-2{fill:#ce2027;}</style></defs><title>speaker-photo</title><rect class="cls-1" x="1" y="1" width="300" height="180"/><path class="cls-2" d="M202.32,280.36a8.07,8.07,0,0,1,5.2,1.52,5.08,5.08,0,0,1,1.88,4.19,4.22,4.22,0,0,1-.79,2.55,5.51,5.51,0,0,1-2.31,1.75,4.2,4.2,0,0,1,2.48,1.69,5.35,5.35,0,0,1,.76,2.93v1a1.69,1.69,0,0,0,.25,1,1.13,1.13,0,0,0,.84.42l0.48,0.07v2.35h-2a3.16,3.16,0,0,1-2.69-1,4.3,4.3,0,0,1-.78-2.66V295a3.13,3.13,0,0,0-.75-2.23,2.9,2.9,0,0,0-2.13-.85h-3.19v5.13l2.09,0.4v2.34h-8.06v-2.34l2.07-.4v-14l-2.07-.4v-2.35h8.74Zm-2.77,8.58h2.7a3.69,3.69,0,0,0,2.45-.69,2.49,2.49,0,0,0,.82-2,2.78,2.78,0,0,0-.81-2.09,3.3,3.3,0,0,0-2.39-.78h-2.77v5.57Z" transform="translate(-135.39 -220.17)"/><path class="cls-2" d="M220.23,280.36v2.35l-2.08.4v10.16a3.73,3.73,0,0,0,1,2.88,4,4,0,0,0,2.84,1,4.11,4.11,0,0,0,2.87-.95,3.71,3.71,0,0,0,1-2.89V283.12l-2.07-.4v-2.35h8.06v2.35l-2.09.4v10.16a6.18,6.18,0,0,1-2.16,5.05,9.86,9.86,0,0,1-11.29,0,6.19,6.19,0,0,1-2.15-5.05V283.12l-2.07-.4v-2.35h8.06Z" transform="translate(-135.39 -220.17)"/><path class="cls-2" d="M247.85,286.58h-2.93l-0.51-2.67a5.17,5.17,0,0,0-1.48-.56,8.62,8.62,0,0,0-2.07-.24,4,4,0,0,0-2.48.67,2.11,2.11,0,0,0-.88,1.74,1.91,1.91,0,0,0,.92,1.62,12.65,12.65,0,0,0,3.16,1.34,12.34,12.34,0,0,1,4.89,2.37,4.91,4.91,0,0,1,1.66,3.86,4.62,4.62,0,0,1-2,3.94,8.64,8.64,0,0,1-5.21,1.44,11.3,11.3,0,0,1-4.18-.74,8.6,8.6,0,0,1-3.11-2v-4.06h3L237.1,296a4.72,4.72,0,0,0,1.6.8,7.55,7.55,0,0,0,2.25.31,3.89,3.89,0,0,0,2.44-.65,2.11,2.11,0,0,0,.84-1.75,2.26,2.26,0,0,0-.8-1.8,8.06,8.06,0,0,0-2.79-1.28,15.86,15.86,0,0,1-5.24-2.38,4.51,4.51,0,0,1-1.78-3.77,4.63,4.63,0,0,1,2-3.87,8.36,8.36,0,0,1,5-1.54,11.72,11.72,0,0,1,4.09.68,9.45,9.45,0,0,1,3.1,1.82v4Z" transform="translate(-135.39 -220.17)"/><path class="cls-2" d="M264.46,286.58h-2.93L261,283.91a5.17,5.17,0,0,0-1.48-.56,8.62,8.62,0,0,0-2.07-.24,4,4,0,0,0-2.48.67,2.11,2.11,0,0,0-.88,1.74,1.91,1.91,0,0,0,.92,1.62,12.65,12.65,0,0,0,3.16,1.34,12.34,12.34,0,0,1,4.89,2.37,4.91,4.91,0,0,1,1.66,3.86,4.62,4.62,0,0,1-2,3.94,8.64,8.64,0,0,1-5.21,1.44,11.3,11.3,0,0,1-4.18-.74,8.6,8.6,0,0,1-3.11-2v-4.06h3L253.7,296a4.72,4.72,0,0,0,1.6.8,7.55,7.55,0,0,0,2.25.31,3.89,3.89,0,0,0,2.44-.65,2.11,2.11,0,0,0,.84-1.75,2.26,2.26,0,0,0-.8-1.8,8.06,8.06,0,0,0-2.79-1.28,15.86,15.86,0,0,1-5.24-2.38,4.51,4.51,0,0,1-1.78-3.77,4.63,4.63,0,0,1,2-3.87,8.36,8.36,0,0,1,5-1.54,11.72,11.72,0,0,1,4.09.68,9.45,9.45,0,0,1,3.1,1.82v4Z" transform="translate(-135.39 -220.17)"/><path class="cls-2" d="M266.26,282.72v-2.35h8.06v2.35l-2.08.4v14l2.08,0.4v2.34h-8.06v-2.34l2.08-.4v-14Z" transform="translate(-135.39 -220.17)"/><path class="cls-2" d="M275.6,297.49l1.39-.2,5.92-16.92h4l5.88,16.92,1.39,0.2v2.34h-6.63v-2.34l1.35-.24L288,294.57h-6.31l-0.86,2.67,1.35,0.24v2.34H275.6v-2.34Zm7.06-5.79h4.46l-2.19-6.86h-0.08Z" transform="translate(-135.39 -220.17)"/><path class="cls-2" d="M302.18,297.49l2.07-.4v-14l-2.07-.4v-2.35h15.49v5.33h-3l-0.17-2.33h-6.35v5.36H315v3h-6.82v5.35l2.08,0.4v2.34h-8.06v-2.34Z" transform="translate(-135.39 -220.17)"/><path class="cls-2" d="M336.34,290.24a10.34,10.34,0,0,1-2.45,7.07,8.7,8.7,0,0,1-12.77,0,10.4,10.4,0,0,1-2.43-7.07v-0.29a10.42,10.42,0,0,1,2.42-7.06,8,8,0,0,1,6.36-2.81,8.11,8.11,0,0,1,6.41,2.81,10.34,10.34,0,0,1,2.45,7.06v0.29Zm-3.89-.32a8.69,8.69,0,0,0-1.26-4.91,4.18,4.18,0,0,0-3.72-1.88,4.07,4.07,0,0,0-3.67,1.87,8.93,8.93,0,0,0-1.21,4.92v0.32a9,9,0,0,0,1.22,5,4.09,4.09,0,0,0,3.67,1.88,4.16,4.16,0,0,0,3.72-1.88,8.84,8.84,0,0,0,1.24-5v-0.32Z" transform="translate(-135.39 -220.17)"/><path class="cls-2" d="M346.65,280.36a8.08,8.08,0,0,1,5.2,1.52,5.09,5.09,0,0,1,1.88,4.19,4.22,4.22,0,0,1-.79,2.55,5.5,5.5,0,0,1-2.31,1.75,4.2,4.2,0,0,1,2.48,1.69,5.34,5.34,0,0,1,.76,2.93v1a1.68,1.68,0,0,0,.25,1,1.13,1.13,0,0,0,.84.42l0.48,0.07v2.35h-2a3.16,3.16,0,0,1-2.69-1,4.3,4.3,0,0,1-.78-2.66V295a3.14,3.14,0,0,0-.75-2.23,2.9,2.9,0,0,0-2.13-.85h-3.2v5.13l2.09,0.4v2.34H337.9v-2.34l2.07-.4v-14l-2.07-.4v-2.35h8.74Zm-2.77,8.58h2.7a3.69,3.69,0,0,0,2.45-.69,2.49,2.49,0,0,0,.82-2,2.78,2.78,0,0,0-.81-2.09,3.3,3.3,0,0,0-2.39-.78h-2.77v5.57Z" transform="translate(-135.39 -220.17)"/><path class="cls-2" d="M364.56,280.36v2.35l-2.08.4v10.16a3.73,3.73,0,0,0,1,2.88,4,4,0,0,0,2.84,1,4.11,4.11,0,0,0,2.87-.95,3.72,3.72,0,0,0,1-2.89V283.12l-2.07-.4v-2.35h8.06v2.35l-2.08.4v10.16a6.17,6.17,0,0,1-2.16,5.05,9.86,9.86,0,0,1-11.29,0,6.19,6.19,0,0,1-2.15-5.05V283.12l-2.07-.4v-2.35h8.06Z" transform="translate(-135.39 -220.17)"/><path class="cls-2" d="M396.18,285.43H396.1l-5.21,14.41h-2.62l-5.19-14.36H383l0.37,8.54v3.06l2.09,0.4v2.34H377.4v-2.34l2.07-.4v-14l-2.07-.4v-2.35h7.16l5,14.34h0.08l5-14.34h7.19v2.35l-2.08.4v14l2.08,0.4v2.34h-8.06v-2.34l2.07-.4V294Z" transform="translate(-135.39 -220.17)"/><path class="cls-2" d="M206.18,301.57v0.84l-1.53.12v12.72h-1.12l-7.77-11.77h-0.06v10.81l1.53,0.12v0.83H193v-0.83l1.53-.12V302.53l-1.53-.12v-0.84h2.66l7.77,11.75h0.06V302.53l-1.53-.12v-0.84h4.18Z" transform="translate(-135.39 -220.17)"/><path class="cls-2" d="M215.74,308.63h-5.61v5.68h6.47l0.08-2h1v3h-10.2v-0.83l1.53-.12V302.53l-1.53-.12v-0.84h10.15v3h-1l-0.08-2h-6.42v5.14h5.61v1Z" transform="translate(-135.39 -220.17)"/><path class="cls-2" d="M222.88,302.41l-1.39.1,2.16,8.87,0.41,2.09h0.06l0.51-2.09,3-9.81h1.06l3,9.81,0.5,2.11h0.06l0.44-2.11,2.13-8.87-1.39-.1v-0.84H237v0.84l-1,.08-3.19,12.77h-1.06l-3.19-10.5-0.36-1.44h-0.06l-0.34,1.44-3.21,10.5h-1.06l-3.19-12.77-1-.08v-0.84h3.57v0.84Z" transform="translate(-135.39 -220.17)"/><path class="cls-2" d="M246.06,302.41l-1.32.09,3.7,6.67,3.72-6.67-1.32-.09v-0.84h3.77v0.84l-1.17.09L249,310.26v4.05l1.53,0.12v0.83h-4.19v-0.83l1.53-.12v-4.12l-4.42-7.69-1.16-.09v-0.84h3.76v0.84Z" transform="translate(-135.39 -220.17)"/><path class="cls-2" d="M267.64,308.51a7.47,7.47,0,0,1-1.64,5,5.35,5.35,0,0,1-4.28,1.93,5.24,5.24,0,0,1-4.21-1.94,7.54,7.54,0,0,1-1.62-5v-0.18a7.57,7.57,0,0,1,1.62-5,5.22,5.22,0,0,1,4.21-1.94,5.35,5.35,0,0,1,4.28,1.94,7.47,7.47,0,0,1,1.65,5v0.18Zm-1.13-.2a6.75,6.75,0,0,0-1.3-4.3,4.23,4.23,0,0,0-3.51-1.64,4.1,4.1,0,0,0-3.44,1.64,6.87,6.87,0,0,0-1.26,4.3v0.2a6.88,6.88,0,0,0,1.27,4.32,4.11,4.11,0,0,0,3.44,1.65,4.22,4.22,0,0,0,3.51-1.64,6.83,6.83,0,0,0,1.28-4.33v-0.2Z" transform="translate(-135.39 -220.17)"/><path class="cls-2" d="M275,301.58a5.24,5.24,0,0,1,3.38,1,3.37,3.37,0,0,1,1.18,2.77,3.17,3.17,0,0,1-.63,1.93,3.53,3.53,0,0,1-1.78,1.24,3,3,0,0,1,1.83,1.14,3.61,3.61,0,0,1,.56,2.07v1.25a2,2,0,0,0,.23,1.07,0.83,0.83,0,0,0,.69.38l0.46,0v0.84h-0.71a1.47,1.47,0,0,1-1.39-.68,3.23,3.23,0,0,1-.4-1.65v-1.21a2.54,2.54,0,0,0-.79-2,3.26,3.26,0,0,0-2.21-.76H272v5.32l1.53,0.13v0.82h-4.18v-0.82l1.53-.13V302.54l-1.53-.13v-0.83H275ZM272,308h2.9a4.07,4.07,0,0,0,2.71-.74,2.49,2.49,0,0,0,.86-2,2.53,2.53,0,0,0-.86-2,3.91,3.91,0,0,0-2.57-.72h-3V308Z" transform="translate(-135.39 -220.17)"/><path class="cls-2" d="M282.26,314.43l1.53-.12V302.53l-1.53-.12v-0.84h4.18v0.84l-1.53.12v5.34h1.87l4.6-5.38-1.32-.08v-0.84h3.83v0.84l-1.2.11-4.9,5.78,5.28,6,1.23,0.11v0.83h-3.9v-0.83l1.3-.08-4.92-5.54h-1.88v5.49l1.53,0.12v0.83h-4.18v-0.83Z" transform="translate(-135.39 -220.17)"/><rect class="cls-2" x="45.02" y="60.48" width="1.93" height="11.62"/><rect class="cls-2" x="45.02" y="72.08" width="1.93" height="11.62"/><rect class="cls-2" x="45.02" y="83.7" width="1.93" height="11.62"/><path class="cls-2" d="M192.86,342.09v-0.65h1.93l0.11,1.23a2.77,2.77,0,0,1,2.5-1.38,2.59,2.59,0,0,1,2.23,1.14,5.16,5.16,0,0,1,.81,3v0.15a4.57,4.57,0,0,1-.81,2.84,2.63,2.63,0,0,1-2.22,1.06,3.17,3.17,0,0,1-1.46-.32,2.67,2.67,0,0,1-1-.9v3.37l1.19,0.1v0.65h-3.26v-0.65l1.19-.1v-9.48Zm6.69,3.38a4.55,4.55,0,0,0-.6-2.46,2,2,0,0,0-1.76-1,2.31,2.31,0,0,0-1.44.42,2.59,2.59,0,0,0-.83,1.1v3.81a2.4,2.4,0,0,0,.87,1,2.53,2.53,0,0,0,1.42.37,2,2,0,0,0,1.75-.86,4,4,0,0,0,.6-2.29v-0.15Z" transform="translate(-135.39 -220.17)"/><path class="cls-2" d="M201.53,338.59v-0.65h2.07v4.86a2.83,2.83,0,0,1,2.59-1.5,2.4,2.4,0,0,1,1.92.78,3.63,3.63,0,0,1,.67,2.41v4.15l1.19,0.1v0.64h-3.27v-0.64l1.19-.1v-4.16a2.72,2.72,0,0,0-.51-1.85,1.8,1.8,0,0,0-1.4-.56,2.37,2.37,0,0,0-1.51.47,2.75,2.75,0,0,0-.89,1.26v4.84l1.19,0.1v0.64h-3.26v-0.64l1.19-.1v-9.94Z" transform="translate(-135.39 -220.17)"/><path class="cls-2" d="M211.22,345.28a4.26,4.26,0,0,1,1-2.87,3.45,3.45,0,0,1,5.09,0,4.26,4.26,0,0,1,1,2.87v0.24a4.26,4.26,0,0,1-1,2.88,3.46,3.46,0,0,1-5.09,0,4.26,4.26,0,0,1-1-2.87v-0.24Zm0.88,0.24a3.78,3.78,0,0,0,.7,2.31,2.46,2.46,0,0,0,3.86,0,3.78,3.78,0,0,0,.7-2.31v-0.24a3.76,3.76,0,0,0-.7-2.3,2.44,2.44,0,0,0-3.86,0,3.77,3.77,0,0,0-.7,2.3v0.24Z" transform="translate(-135.39 -220.17)"/><path class="cls-2" d="M221.67,339.41v2h1.74v0.72h-1.74v5.16a1.68,1.68,0,0,0,.28,1.1,0.94,0.94,0,0,0,.75.33l0.41,0,0.47-.06,0.13,0.65a2.27,2.27,0,0,1-.53.15,3.91,3.91,0,0,1-.63.05,1.64,1.64,0,0,1-1.3-.53,2.48,2.48,0,0,1-.47-1.67v-5.16h-1.36v-0.72h1.36v-2h0.89Z" transform="translate(-135.39 -220.17)"/><path class="cls-2" d="M224.88,345.28a4.26,4.26,0,0,1,1-2.87,3.45,3.45,0,0,1,5.09,0,4.26,4.26,0,0,1,1,2.87v0.24a4.26,4.26,0,0,1-1,2.88,3.46,3.46,0,0,1-5.09,0,4.26,4.26,0,0,1-1-2.87v-0.24Zm0.88,0.24a3.78,3.78,0,0,0,.7,2.31,2.46,2.46,0,0,0,3.86,0,3.78,3.78,0,0,0,.7-2.31v-0.24a3.76,3.76,0,0,0-.7-2.3,2.44,2.44,0,0,0-3.86,0,3.77,3.77,0,0,0-.7,2.3v0.24Z" transform="translate(-135.39 -220.17)"/><path class="cls-2" d="M236.9,348.72l1.19-.1v-6.44l-1.19-.1v-0.65H239v7.19l1.19,0.1v0.64H236.9v-0.64Zm2.07-9.55H238.1v-1.23H239v1.23Z" transform="translate(-135.39 -220.17)"/><path class="cls-2" d="M247.38,343.88h-0.72l-0.1-1.12a2.22,2.22,0,0,0-.83-0.53,3.24,3.24,0,0,0-1.15-.19,2.15,2.15,0,0,0-1.44.41,1.25,1.25,0,0,0-.48,1,1.15,1.15,0,0,0,.41.91,4,4,0,0,0,1.65.63,5.4,5.4,0,0,1,2.12.86,1.78,1.78,0,0,1,.7,1.48,1.92,1.92,0,0,1-.8,1.6,3.41,3.41,0,0,1-2.12.61,4.94,4.94,0,0,1-1.6-.25,3.79,3.79,0,0,1-1.25-.69V347h0.71l0.12,1.13a2,2,0,0,0,.89.51,4,4,0,0,0,1.12.16,2.43,2.43,0,0,0,1.5-.42,1.24,1.24,0,0,0,.55-1,1.28,1.28,0,0,0-.46-1,3.72,3.72,0,0,0-1.65-.68,5.55,5.55,0,0,1-2.1-.82,1.67,1.67,0,0,1-.69-1.42,1.91,1.91,0,0,1,.77-1.53,3.12,3.12,0,0,1,2-.63,4.56,4.56,0,0,1,1.59.27,3.21,3.21,0,0,1,1.18.72Z" transform="translate(-135.39 -220.17)"/><path class="cls-2" d="M252.63,348.72l1.19-.1v-6.44l-1.19-.1v-0.65h2l0.08,1.38a2.83,2.83,0,0,1,1-1.13,2.87,2.87,0,0,1,1.53-.4,2.44,2.44,0,0,1,2,.79,3.73,3.73,0,0,1,.67,2.46v4.09l1.19,0.1v0.64h-3.27v-0.64l1.19-.1v-4.08a2.87,2.87,0,0,0-.51-1.93,1.85,1.85,0,0,0-1.45-.56,2.27,2.27,0,0,0-1.5.49,2.71,2.71,0,0,0-.84,1.29v4.79l1.19,0.1v0.64h-3.27v-0.64Z" transform="translate(-135.39 -220.17)"/><path class="cls-2" d="M262.38,345.28a4.26,4.26,0,0,1,1-2.87,3.45,3.45,0,0,1,5.09,0,4.26,4.26,0,0,1,1,2.87v0.24a4.26,4.26,0,0,1-1,2.88,3.46,3.46,0,0,1-5.09,0,4.26,4.26,0,0,1-1-2.87v-0.24Zm0.88,0.24a3.78,3.78,0,0,0,.7,2.31,2.46,2.46,0,0,0,3.86,0,3.78,3.78,0,0,0,.7-2.31v-0.24a3.76,3.76,0,0,0-.7-2.3,2.44,2.44,0,0,0-3.86,0,3.77,3.77,0,0,0-.7,2.3v0.24Z" transform="translate(-135.39 -220.17)"/><path class="cls-2" d="M272.83,339.41v2h1.74v0.72h-1.74v5.16a1.68,1.68,0,0,0,.28,1.1,0.94,0.94,0,0,0,.75.33l0.41,0,0.47-.06,0.13,0.65a2.27,2.27,0,0,1-.53.15,3.91,3.91,0,0,1-.63.05,1.64,1.64,0,0,1-1.3-.53,2.48,2.48,0,0,1-.47-1.67v-5.16h-1.36v-0.72h1.36v-2h0.89Z" transform="translate(-135.39 -220.17)"/><path class="cls-2" d="M285.3,349.36q-0.09-.4-0.12-0.7a4.78,4.78,0,0,1,0-.59,3.5,3.5,0,0,1-1.17,1,3.31,3.31,0,0,1-1.65.41,2.53,2.53,0,0,1-1.8-.6,2.13,2.13,0,0,1-.64-1.63,2,2,0,0,1,.94-1.74,4.49,4.49,0,0,1,2.56-.64h1.75v-1a1.69,1.69,0,0,0-.55-1.33,2.22,2.22,0,0,0-1.53-.48,3.84,3.84,0,0,0-1.2.18,2.72,2.72,0,0,0-.91.49l-0.07,1.06h-0.73v-1.52a4.55,4.55,0,0,1,1.31-.69,5,5,0,0,1,1.63-.26,3.18,3.18,0,0,1,2.11.67,2.35,2.35,0,0,1,.8,1.91v3.9c0,0.16,0,.32,0,0.46a3.5,3.5,0,0,0,0,.44l0.79,0.05v0.64H285.3Zm-2.89-.62a3.17,3.17,0,0,0,1.68-.44,2.6,2.6,0,0,0,1-1.14v-1.59h-1.77a3.29,3.29,0,0,0-1.91.49,1.47,1.47,0,0,0-.71,1.25,1.31,1.31,0,0,0,.44,1A1.78,1.78,0,0,0,282.42,348.74Z" transform="translate(-135.39 -220.17)"/><path class="cls-2" d="M290.3,342.09l-1,.07,2,5.21,0.26,0.93h0l0.28-.93,1.95-5.21-1-.07v-0.65h2.67v0.65l-0.78.07-2.8,7.21h-0.7l-2.81-7.21-0.78-.07v-0.65h2.67v0.65Z" transform="translate(-135.39 -220.17)"/><path class="cls-2" d="M301.82,349.36q-0.09-.4-0.12-0.7a4.78,4.78,0,0,1,0-.59,3.5,3.5,0,0,1-1.17,1,3.31,3.31,0,0,1-1.65.41,2.53,2.53,0,0,1-1.8-.6,2.13,2.13,0,0,1-.64-1.63,2,2,0,0,1,.94-1.74,4.49,4.49,0,0,1,2.56-.64h1.75v-1a1.69,1.69,0,0,0-.55-1.33,2.22,2.22,0,0,0-1.53-.48,3.84,3.84,0,0,0-1.2.18,2.72,2.72,0,0,0-.91.49l-0.07,1.06h-0.73v-1.52a4.55,4.55,0,0,1,1.31-.69,5,5,0,0,1,1.63-.26,3.18,3.18,0,0,1,2.11.67,2.35,2.35,0,0,1,.8,1.91v3.9c0,0.16,0,.32,0,0.46a3.5,3.5,0,0,0,0,.44l0.79,0.05v0.64h-1.56Zm-2.89-.62a3.17,3.17,0,0,0,1.68-.44,2.6,2.6,0,0,0,1-1.14v-1.59h-1.77a3.29,3.29,0,0,0-1.91.49,1.47,1.47,0,0,0-.71,1.25,1.31,1.31,0,0,0,.44,1A1.78,1.78,0,0,0,298.93,348.74Z" transform="translate(-135.39 -220.17)"/><path class="cls-2" d="M304.56,348.72l1.19-.1v-6.44l-1.19-.1v-0.65h2.07v7.19l1.19,0.1v0.64h-3.26v-0.64Zm2.07-9.55h-0.87v-1.23h0.87v1.23Z" transform="translate(-135.39 -220.17)"/><path class="cls-2" d="M309.12,338.59v-0.65h2.07v10.69l1.19,0.1v0.64h-3.26v-0.64l1.19-.1v-9.94Z" transform="translate(-135.39 -220.17)"/><path class="cls-2" d="M319.24,349.36q-0.09-.4-0.12-0.7a4.78,4.78,0,0,1,0-.59,3.5,3.5,0,0,1-1.17,1,3.32,3.32,0,0,1-1.65.41,2.53,2.53,0,0,1-1.8-.6,2.13,2.13,0,0,1-.64-1.63,2,2,0,0,1,.94-1.74,4.49,4.49,0,0,1,2.56-.64h1.75v-1a1.69,1.69,0,0,0-.55-1.33A2.23,2.23,0,0,0,317,342a3.83,3.83,0,0,0-1.2.18,2.72,2.72,0,0,0-.91.49l-0.07,1.06h-0.73v-1.52a4.55,4.55,0,0,1,1.31-.69,5,5,0,0,1,1.63-.26,3.18,3.18,0,0,1,2.11.67,2.35,2.35,0,0,1,.8,1.91v3.9c0,0.16,0,.32,0,0.46a3.5,3.5,0,0,0,0,.44l0.79,0.05v0.64h-1.56Zm-2.89-.62a3.17,3.17,0,0,0,1.68-.44,2.6,2.6,0,0,0,1-1.14v-1.59h-1.77a3.29,3.29,0,0,0-1.91.49,1.47,1.47,0,0,0-.71,1.25,1.31,1.31,0,0,0,.44,1A1.77,1.77,0,0,0,316.35,348.74Z" transform="translate(-135.39 -220.17)"/><path class="cls-2" d="M328.85,345.62a4.57,4.57,0,0,1-.81,2.84,2.63,2.63,0,0,1-2.22,1.06,3.06,3.06,0,0,1-1.5-.35,2.68,2.68,0,0,1-1-1l-0.1,1.19h-0.75V338.68l-1.19-.1v-0.65h2.07v4.75a2.71,2.71,0,0,1,2.48-1.39,2.59,2.59,0,0,1,2.23,1.14,5.16,5.16,0,0,1,.81,3v0.15Zm-0.89-.15a4.64,4.64,0,0,0-.59-2.46,1.91,1.91,0,0,0-1.73-.95,2.29,2.29,0,0,0-1.48.45,2.71,2.71,0,0,0-.83,1.16v3.58a2.37,2.37,0,0,0,2.33,1.5,2,2,0,0,0,1.72-.85,4,4,0,0,0,.58-2.29v-0.15Z" transform="translate(-135.39 -220.17)"/><path class="cls-2" d="M330.09,338.59v-0.65h2.07v10.69l1.19,0.1v0.64h-3.26v-0.64l1.19-.1v-9.94Z" transform="translate(-135.39 -220.17)"/><path class="cls-2" d="M338.23,349.52a3.18,3.18,0,0,1-2.48-1.1,4,4,0,0,1-1-2.79v-0.4a4.14,4.14,0,0,1,1-2.82,3,3,0,0,1,2.36-1.12,2.94,2.94,0,0,1,2.29.92,3.53,3.53,0,0,1,.83,2.46v0.75h-5.6v0.21a3.5,3.5,0,0,0,.71,2.24,2.27,2.27,0,0,0,1.87.9,3.81,3.81,0,0,0,1.39-.23,2.75,2.75,0,0,0,1-.65l0.37,0.6a3.16,3.16,0,0,1-1.13.74A4.33,4.33,0,0,1,338.23,349.52ZM338.11,342a2.1,2.1,0,0,0-1.63.74,3.19,3.19,0,0,0-.77,1.86v0h4.64v-0.22a2.53,2.53,0,0,0-.61-1.73A2.08,2.08,0,0,0,338.11,342Z" transform="translate(-135.39 -220.17)"/></svg>